<?xml version="1.0" encoding="utf-8"?>
<!-- Generator: Adobe Illustrator 23.0.2, SVG Export Plug-In . SVG Version: 6.00 Build 0)  -->
<svg version="1.1" id="Capa_1" xmlns="http://www.w3.org/2000/svg" xmlns:xlink="http://www.w3.org/1999/xlink" x="0px" y="0px"
	 viewBox="0 0 34 50" style="enable-background:new 0 0 34 50;" xml:space="preserve">
<style type="text/css">
	.st0{fill:#EA3F57;}
</style>
<g>
	<path class="st0" d="M17,49.3c-5,0-10.1,0-15.1,0c-1.1,0-1.2-0.2-1.2-1.2c0-5,0-10,0-15c0-1.1,0.2-1.3,1.3-1.3c10,0,20,0,29.9,0
		c1.4,0,1.5,0.1,1.5,1.6c0,4.8,0,9.6,0,14.5c0,1.4,0,1.5-1.5,1.5C26.9,49.3,22,49.3,17,49.3z M2.2,33.9c0,4.7,0,9.3,0,13.8
		c9.9,0,19.7,0,29.5,0c0-4.6,0-9.2,0-13.9c-0.5,0.2-0.8,0.4-1.2,0.6c-4.2,2.2-8.4,4.3-12.5,6.5c-0.7,0.4-1.3,0.4-2.1,0
		c-4.2-2.2-8.4-4.4-12.6-6.5C3,34.3,2.7,34.1,2.2,33.9z M29.3,33.4c-8.2,0-16.3,0-24.5,0c0.4,0.2,0.5,0.3,0.7,0.4
		c3.6,1.9,7.2,3.7,10.8,5.6c0.6,0.3,1,0.3,1.5,0c3.6-1.9,7.2-3.7,10.7-5.5C28.7,33.8,28.9,33.6,29.3,33.4z"/>
	<path class="st0" d="M10.2,12.1c2.8,0,5.5,0,8.3,0c1,0,1.2,0.2,1.2,1.2c0,4.8,0,9.6,0,14.4c0,0.4-0.2,0.9-0.4,1
		c-0.3,0.1-0.8-0.1-1.1-0.3c-0.9-0.7-1.8-1.5-2.7-2.1c-0.3-0.2-0.8-0.4-1.2-0.4c-4.1,0-8.2,0-12.3,0c-1.1,0-1.3-0.2-1.3-1.3
		c0-3.7,0-7.5,0-11.2c0-1.1,0.2-1.2,1.2-1.2C4.6,12,7.4,12.1,10.2,12.1z M18.1,26.4c0-4.3,0-8.5,0-12.7c-5.3,0-10.6,0-15.9,0
		c0,3.5,0,7,0,10.6c0.4,0,0.7,0,1,0c3.7,0,7.4,0,11.1,0c0.7,0,1.3,0.2,1.9,0.7C16.8,25.4,17.4,25.8,18.1,26.4z"/>
	<path class="st0" d="M31.8,19.7c0-3.6,0-7.1,0-10.6c-5.6,0-11.1,0-16.7,0c0,0.3,0,0.6-0.1,0.8c-0.2,0.3-0.5,0.6-0.7,0.6
		c-0.2,0-0.7-0.3-0.7-0.6c-0.1-0.6-0.1-1.1,0-1.7c0-0.6,0.5-0.7,1-0.6c1.9,0,3.8,0,5.8,0c3.9,0,7.8,0,11.8,0c1.2,0,1.3,0.1,1.3,1.2
		c0,3.8,0,7.5,0,11.3c0,1-0.1,1.2-1.1,1.2c-3.3,0-6.6,0-9.9,0c-0.3,0-0.8-0.1-1-0.4c-0.4-0.5,0.1-1.1,0.9-1.1c2.3,0,4.6,0,6.9,0
		C30,19.7,30.8,19.7,31.8,19.7z"/>
	<path class="st0" d="M27.7,15.9c-0.6,0-1.1-0.5-1.1-1.2c0-0.6,0.5-1.1,1.2-1.1c0.6,0,1.1,0.5,1.1,1.1
		C28.8,15.3,28.3,15.9,27.7,15.9z"/>
	<path class="st0" d="M23.9,15.9c-0.6,0-1.2-0.5-1.1-1.2c0-0.7,0.4-1.1,1.1-1.1c0.7,0,1.2,0.4,1.2,1.1C25,15.3,24.5,15.9,23.9,15.9z
		"/>
	<path class="st0" d="M24.2,2.1c-0.5,0-0.9,0-1.4,0c0-0.5,0-0.9,0-1.4c0.5,0,0.9,0,1.4,0C24.2,1.2,24.2,1.6,24.2,2.1z"/>
	<path class="st0" d="M25.8,0.7c0.5,0,0.9,0,1.4,0c0,0.5,0,0.9,0,1.4c-0.4,0-0.9,0-1.4,0C25.8,1.7,25.8,1.2,25.8,0.7z"/>
	<path class="st0" d="M28.9,2.1c0-0.5,0-0.9,0-1.4c0.5,0,0.9,0,1.4,0c0,0.4,0,0.9,0,1.4C29.8,2.1,29.4,2.1,28.9,2.1z"/>
	<path class="st0" d="M33.3,0.7c0,0.5,0,0.9,0,1.4c-0.5,0-0.9,0-1.4,0c0-0.5,0-0.9,0-1.4C32.4,0.7,32.9,0.7,33.3,0.7z"/>
	<path class="st0" d="M28.9,3.7c0.5,0,0.9,0,1.4,0c0,0.5,0,1,0,1.4c-0.5,0-0.9,0-1.4,0C28.9,4.7,28.9,4.2,28.9,3.7z"/>
	<path class="st0" d="M31.9,3.7c0.4,0,0.9,0,1.4,0c0,0.5,0,0.9,0,1.4c-0.5,0-0.9,0-1.4,0C31.9,4.7,31.9,4.2,31.9,3.7z"/>
	<path class="st0" d="M27.2,46.3c-0.5,0-0.9,0-1.4,0c0-0.5,0-0.9,0-1.4c0.5,0,0.9,0,1.4,0C27.2,45.3,27.2,45.8,27.2,46.3z"/>
	<path class="st0" d="M28.9,44.8c0.5,0,0.9,0,1.4,0c0,0.5,0,0.9,0,1.4c-0.4,0-0.9,0-1.4,0C28.9,45.8,28.9,45.4,28.9,44.8z"/>
	<path class="st0" d="M7.5,19.3c0,0.6-0.5,1.2-1.1,1.1c-0.7,0-1.1-0.4-1.1-1.1c-0.1-0.6,0.5-1.2,1.1-1.2C6.9,18.1,7.5,18.6,7.5,19.3
		z"/>
	<path class="st0" d="M11.3,19.3c0,0.6-0.5,1.1-1.1,1.1c-0.6,0-1.2-0.5-1.1-1.2c0.1-0.7,0.4-1.1,1.1-1.1
		C10.8,18.1,11.3,18.6,11.3,19.3z"/>
	<path class="st0" d="M14,18.2c0.6,0,1.1,0.5,1.1,1.2c-0.1,0.7-0.4,1-1.1,1.1c-0.6,0-1.2-0.5-1.1-1.1C12.8,18.6,13.4,18.1,14,18.2z"
		/>
</g>
</svg>
