<?xml version="1.0" encoding="utf-8"?>
<!-- Generator: Adobe Illustrator 24.1.1, SVG Export Plug-In . SVG Version: 6.00 Build 0)  -->
<svg version="1.1" id="Capa_1" xmlns="http://www.w3.org/2000/svg" xmlns:xlink="http://www.w3.org/1999/xlink" x="0px" y="0px"
	 viewBox="0 0 70 60" style="enable-background:new 0 0 70 60;" xml:space="preserve">
<style type="text/css">
	.st0{fill:#FFFFFF;}
</style>
<g>
	<g>
		<path class="st0" d="M12.52,6.51c0-3.3-2.68-5.98-5.98-5.98c-3.3,0-5.98,2.68-5.98,5.98c0,3.3,2.68,5.98,5.98,5.98
			C9.84,12.49,12.52,9.82,12.52,6.51z"/>
		<path class="st0" d="M17.65,18.23c-0.88-2.28-3.05-3.89-5.6-3.89c-3.32,0-6.02,2.75-6.02,6.14c0,0.88,0.19,1.72,0.51,2.48
			l5.16,13.46c0.76,1.91,3.08,3.7,5.51,3.7c3.88,0.14,6.33-4.19,6.86-5.49C23.96,34.33,17.65,18.23,17.65,18.23z"/>
	</g>
	<path class="st0" d="M69.44,20.49c0-3.4-2.69-6.15-6.02-6.15c-2.54,0-4.71,1.61-5.6,3.89l-7.19,18.55l-4.55-11.57l-2.73-6.92
		c-0.86-2.3-3.04-3.93-5.59-3.93c-2.52,0-4.67,1.59-5.56,3.84h0l-2.75,7.01l-4.55,11.57c0,0-2.42,4.84-6.6,5.05
		c-0.61,0.04-3.53,0.29-5.01-1.46l-0.01,0l3.29,8.19l2.72,6.96c0.85,2.31,3.03,3.95,5.58,3.95c2.53,0,4.69-1.61,5.56-3.88l1-2.47
		l6.34-16.08l4.54,11.53l-0.01,0.01l2.72,6.93c0.85,2.31,3.03,3.97,5.59,3.97c2.53,0,4.68-1.61,5.56-3.87l1-2.48l11.81-30.28
		C69.28,22.11,69.44,21.32,69.44,20.49z"/>
</g>
</svg>
