<?xml version="1.0" encoding="utf-8"?>
<!-- Generator: Adobe Illustrator 23.0.3, SVG Export Plug-In . SVG Version: 6.00 Build 0)  -->
<svg version="1.1" id="Capa_1" xmlns="http://www.w3.org/2000/svg" xmlns:xlink="http://www.w3.org/1999/xlink" x="0px" y="0px"
	 viewBox="0 0 53 48" style="enable-background:new 0 0 53 48;" xml:space="preserve">
<style type="text/css">
	.st0{fill:#1B9D8A;}
	.st1{fill:#00604E;}
	.st2{fill:url(#SVGID_1_);}
</style>
<g>
	<g>
		<path class="st0" d="M51.4,25.4c-0.5-0.9-1.2-1.7-2-2.2c-0.4-0.4-0.8-0.9-1.1-1.4c-1.5-2.6-1-5.9,1.1-7.9c2.9-2.3,3.8-6.4,1.9-9.7
			c-2.1-3.6-6.7-4.7-10.2-2.6c-3.6,2.1-4.7,6.7-2.6,10.2c0.5,0.9,1.3,1.7,2.1,2.3c0.4,0.4,0.8,0.9,1.1,1.4c1.5,2.6,1,5.8-1.1,7.8
			c-3,2.3-3.9,6.5-1.9,9.8c2.1,3.6,6.7,4.8,10.3,2.7C52.3,33.6,53.5,29,51.4,25.4z"/>
	</g>
	<circle class="st1" cx="7.9" cy="29.5" r="7.4"/>
	<path class="st0" d="M23.3,11.8C22.9,11.9,22.4,12,22,12c-3,0-5.6-2.1-6.2-5c-0.5-3.7-3.6-6.5-7.4-6.5C4.2,0.5,0.9,3.8,0.9,8
		c0,4.1,3.3,7.5,7.5,7.5c1.1,0,2.1-0.2,3-0.6c0.1,0,0.2-0.1,0.4-0.1L23.3,11.8L23.3,11.8z"/>
	
		<linearGradient id="SVGID_1_" gradientUnits="userSpaceOnUse" x1="16.4015" y1="25.5295" x2="37.3089" y2="33.9334" gradientTransform="matrix(1 0 0 -1 0 50)">
		<stop  offset="0.2067" style="stop-color:#00604E"/>
		<stop  offset="1" style="stop-color:#1B9D8A"/>
	</linearGradient>
	<path class="st2" d="M30.8,25c0.1-0.1,0.3-0.3,0.4-0.4c1.8-1.4,3-3.5,3-6c0-4.2-3.4-7.5-7.5-7.5c-1.1,0-2.1,0.2-3,0.6
		c-0.1,0-0.3,0.1-0.5,0.1l0,0l-11.6,2.9c0.4-0.1,0.9-0.2,1.4-0.2c3,0,5.5,2.1,6.2,4.9c0.3,2.2,1.4,4.1,3.1,5.3
		c0.4,0.4,0.8,0.8,1.1,1.3c1.5,2.6,1,5.8-1.1,7.8l0,0l0.1-0.1L30.8,25z"/>
	<path class="st0" d="M20.4,43.7c2.1,3.6,6.7,4.8,10.3,2.7c3.6-2.1,4.8-6.7,2.7-10.3c-0.5-0.9-1.2-1.7-2-2.2
		c-0.4-0.4-0.8-0.9-1.1-1.4C28.8,30,29.1,27,30.8,25l-8.4,8.8l-0.1,0.1C19.3,36.2,18.4,40.4,20.4,43.7z"/>
</g>
</svg>
