<?xml version="1.0" encoding="utf-8"?>
<!-- Generator: Adobe Illustrator 23.0.2, SVG Export Plug-In . SVG Version: 6.00 Build 0)  -->
<svg version="1.1" id="Capa_1" xmlns="http://www.w3.org/2000/svg" xmlns:xlink="http://www.w3.org/1999/xlink" x="0px" y="0px"
	 viewBox="0 0 50 26" style="enable-background:new 0 0 50 26;" xml:space="preserve">
<style type="text/css">
	.st0{fill:#FFFFFF;}
</style>
<g>
	<g>
		<g id="Menu_2_">
			<path class="st0" d="M2.3,3.9l45.3,0c0.8,0,1.5-0.6,1.6-1.4c0.1-0.9-0.6-1.6-1.5-1.6l-45.3,0c-0.8,0-1.5,0.6-1.6,1.4
				C0.7,3.2,1.4,3.9,2.3,3.9z"/>
			<path class="st0" d="M47.7,11.5H2.4c-0.8,0-1.5,0.6-1.6,1.4c-0.1,0.9,0.6,1.6,1.5,1.6h45.3c0.8,0,1.5-0.6,1.6-1.4
				C49.3,12.2,48.6,11.5,47.7,11.5z"/>
			<path class="st0" d="M47.7,22.1l-30.2,0c-0.8,0-1.5,0.6-1.6,1.4c-0.1,0.9,0.6,1.6,1.5,1.6l30.2,0c0.8,0,1.5-0.6,1.6-1.4
				C49.3,22.8,48.6,22.1,47.7,22.1z"/>
		</g>
	</g>
</g>
</svg>
