<?xml version="1.0" encoding="utf-8"?>
<!-- Generator: Adobe Illustrator 23.0.2, SVG Export Plug-In . SVG Version: 6.00 Build 0)  -->
<svg version="1.1" id="Capa_1" xmlns="http://www.w3.org/2000/svg" xmlns:xlink="http://www.w3.org/1999/xlink" x="0px" y="0px"
	 viewBox="0 0 52 40" style="enable-background:new 0 0 52 40;" xml:space="preserve">
<style type="text/css">
	.st0{fill:#FFFFFF;}
</style>
<g>
	<path class="st0" d="M51,5.9v28.1c0,2.6-2.1,4.7-4.7,4.7H5.7c-2.6,0-4.7-2.1-4.7-4.7V5.9c0-2.6,2.1-4.7,4.7-4.7h40.6
		C48.9,1.3,51,3.3,51,5.9z M5.7,5.9v4c2.2,1.8,5.7,4.6,13.1,10.4c1.6,1.3,4.9,4.4,7.2,4.4c2.3,0,5.5-3.1,7.2-4.4
		c7.5-5.8,11-8.6,13.1-10.4v-4H5.7z M46.3,34.1V15.9c-2.2,1.8-5.4,4.3-10.2,8.1c-2.2,1.7-5.9,5.4-10.1,5.4c-4.2,0-7.9-3.7-10.1-5.4
		c-4.8-3.8-8-6.3-10.2-8.1v18.1H46.3z"/>
</g>
</svg>
