<?xml version="1.0" encoding="utf-8"?>
<!-- Generator: Adobe Illustrator 23.0.2, SVG Export Plug-In . SVG Version: 6.00 Build 0)  -->
<svg version="1.1" id="Capa_1" xmlns="http://www.w3.org/2000/svg" xmlns:xlink="http://www.w3.org/1999/xlink" x="0px" y="0px"
	 viewBox="0 0 34 35" style="enable-background:new 0 0 34 35;" xml:space="preserve">
<style type="text/css">
	.st0{fill:none;stroke:#FFFFFF;stroke-miterlimit:10;}
</style>
<g>
	<path class="st0" d="M33,4.6c0,16-13,29-29,29c-0.7,0-1.3-0.5-1.5-1.2L1,25.9c-0.2-0.7,0.2-1.4,0.9-1.7l7-3
		c0.6-0.3,1.3-0.1,1.8,0.4l3.1,3.8c4.9-2.3,8.8-6.3,11.1-11.1l-3.8-3.1c-0.5-0.4-0.7-1.1-0.4-1.7l3-7c0.3-0.7,1-1,1.7-0.9l6.5,1.5
		C32.5,3.3,33,3.9,33,4.6z"/>
</g>
</svg>
